<svg xmlns="http://www.w3.org/2000/svg" width="88" height="88" viewBox="0 0 88 88"><path fill="#00489A" d="M74 88H14C6.3 88 0 81.7 0 74V14C0 6.3 6.3 0 14 0h60c7.7 0 14 6.3 14 14v60c0 7.7-6.3 14-14 14z"/><g fill="#FFF"><path d="M35.36 48.61c-.14-3.89-.29-8.59-.29-13.3h-.14c-1.01 4.13-2.35 8.74-3.6 12.53l-3.94 12.62h-5.71l-3.46-12.53c-1.06-3.79-2.16-8.4-2.93-12.62h-.1c-.19 4.37-.34 9.36-.58 13.39L14.05 61H7.28l2.06-32.35h9.75l3.17 10.8c1.01 3.74 2.02 7.78 2.74 11.57h.14c.91-3.74 2.02-8.02 3.07-11.62l3.46-10.75h9.55L43 61h-7.15l-.49-12.39zM74.53 48.61c-.14-3.89-.29-8.59-.29-13.3h-.14c-1.01 4.13-2.35 8.74-3.6 12.53l-3.94 12.62h-5.71l-3.46-12.53c-1.06-3.79-2.16-8.4-2.93-12.62h-.1c-.19 4.37-.34 9.36-.58 13.39L53.22 61h-6.77l2.06-32.35h9.75l3.17 10.8c1.01 3.74 2.02 7.78 2.74 11.57h.14c.91-3.74 2.02-8.02 3.07-11.62l3.46-10.75h9.55L82.16 61h-7.15l-.48-12.39z"/></g></svg>